# Blender v2.80 (sub 75) OBJ File: 'duck3d.blend'
# www.blender.org
mtllib duck3d.mtl
o Duck
v -0.444753 2.728244 -0.931536
v -0.048688 2.770126 -2.319755
v -0.066355 2.933756 -1.214069
v -0.284736 2.806253 -1.124618
v -0.432980 2.485625 -0.818373
v -0.065477 2.685256 -2.331084
v -0.257852 2.435869 -1.042976
v -0.073060 2.335714 -1.086121
v -0.521199 3.006386 -0.698358
v -0.555001 2.855850 -0.638492
v -0.506434 3.138968 -0.567428
v -0.527195 3.066227 -0.405059
v -0.553420 2.933813 -0.391960
v -0.568009 2.828531 -0.503740
v -0.198821 3.379419 -0.911419
v -0.407278 3.194927 -0.829277
v -0.411793 3.319933 -0.515113
v -0.240331 3.502626 -0.481958
v -0.438528 3.184490 -0.202801
v -0.496159 2.767354 -0.130622
v -0.527848 2.564648 -0.439340
v -0.240592 3.302171 -0.002875
v -0.311518 2.886111 0.136729
v -0.051532 2.176346 -0.921943
v -0.277916 2.262860 -0.826320
v -0.391050 2.311805 -0.650614
v -0.443181 2.363535 -0.398585
v -0.371826 2.418336 -0.093271
v -0.193625 2.449096 0.127999
v -0.003063 2.080042 -0.751302
v -0.132020 2.071493 -0.637178
v -0.186934 2.077368 -0.488353
v -0.181572 2.086467 -0.363601
v -0.109662 2.101596 -0.243752
v -0.011150 2.099761 -0.142952
v -0.427394 1.795038 -0.196525
v -0.489074 1.716608 -0.378721
v -0.510901 1.429158 -0.483585
v -0.304318 1.771185 -0.021534
v -0.843069 1.380801 0.152814
v -0.272617 1.427549 -0.737552
v -0.099085 1.817791 0.131148
v -0.754543 1.355488 0.252033
v -1.118847 1.387754 0.891262
v -1.051109 1.760387 1.212870
v -0.839988 1.594322 0.199177
v -0.883376 1.728693 0.431451
v -0.731261 1.757652 0.469321
v -0.588762 1.097355 -0.094474
v -1.055216 1.174563 0.426377
v -0.738349 1.567334 0.322023
v -0.152191 1.718109 0.634279
v -0.123522 1.765001 1.232005
v -0.279188 1.600755 0.629637
v -0.206471 1.532580 1.284435
v -0.561080 1.337058 0.072015
v -0.455315 1.578330 0.086256
v -0.408113 1.408146 0.650834
v -0.460765 1.195395 0.629231
v -0.563883 0.960031 0.528054
v -0.245682 1.296906 1.220056
v -0.311248 1.051706 1.125313
v -0.349541 0.809125 0.925136
v -0.392751 0.951893 -0.573649
v -0.409720 0.688543 -0.306782
v -0.620766 0.783225 -0.009428
v -0.541769 0.765099 0.414690
v -0.330953 0.634045 0.671042
v -0.143630 0.413358 0.178837
v -0.219279 0.457785 0.006843
v -0.391168 0.559573 0.066582
v -0.379169 0.533591 0.277698
v -0.243580 0.459612 0.319649
v -0.371161 0.142444 0.047128
v -0.214741 0.129656 0.058652
v -0.174737 -0.018734 0.196278
v -0.101636 0.087028 -0.540978
v 0.041621 -0.015692 -0.566330
v -0.515586 0.076706 -0.559255
v -0.595419 -0.032588 -0.572105
v -0.436044 -0.010018 0.217811
v -0.348071 0.131591 0.309624
v -0.371023 0.020494 0.586239
v -0.239899 0.118941 0.299774
v -0.211339 -0.009535 0.591264
v -0.188665 2.618339 -1.824018
v -0.114034 2.783609 -1.930384
v 0.004599 2.531527 -1.844396
v -0.040471 2.807277 -2.101759
v -0.103250 2.526364 -1.697819
v -0.174163 2.739022 -1.847981
v -0.105077 2.527847 -1.697687
v 0.007029 2.530833 -1.840012
v -0.078788 2.459275 -1.010352
v 0.156198 2.789235 -2.429729
v 0.156198 3.099674 -1.241944
v 0.757149 2.728244 -0.931536
v 0.361084 2.770126 -2.319755
v 0.378751 2.933756 -1.214069
v 0.597132 2.806253 -1.124618
v 0.156198 3.483091 -0.943563
v 0.156198 3.618023 -0.350296
v 0.745376 2.485625 -0.818373
v 0.377874 2.685256 -2.331084
v 0.156198 2.696319 -2.441023
v 0.570248 2.435869 -1.042976
v 0.385456 2.335714 -1.086121
v 0.156198 2.225082 -1.036577
v 0.156198 3.385882 0.092941
v 0.156198 2.924117 0.319461
v 0.833595 3.006386 -0.698358
v 0.867397 2.855850 -0.638492
v 0.818830 3.138968 -0.567428
v 0.839591 3.066227 -0.405059
v 0.865816 2.933813 -0.391960
v 0.880405 2.828531 -0.503740
v 0.511217 3.379419 -0.911419
v 0.719674 3.194927 -0.829277
v 0.724189 3.319933 -0.515113
v 0.552727 3.502626 -0.481958
v 0.750924 3.184490 -0.202801
v 0.808555 2.767354 -0.130622
v 0.840244 2.564648 -0.439340
v 0.552988 3.302171 -0.002875
v 0.623914 2.886111 0.136729
v 0.156198 2.130739 -0.913710
v 0.156198 2.073969 -0.803190
v 0.363928 2.176346 -0.921943
v 0.590312 2.262860 -0.826320
v 0.703446 2.311805 -0.650614
v 0.755577 2.363535 -0.398585
v 0.684222 2.418336 -0.093271
v 0.506021 2.449096 0.127999
v 0.156198 2.442805 0.236210
v 0.315460 2.080042 -0.751302
v 0.444416 2.071493 -0.637178
v 0.499330 2.077368 -0.488353
v 0.493969 2.086467 -0.363601
v 0.156198 2.090415 -0.118913
v 0.422058 2.101596 -0.243753
v 0.323547 2.099761 -0.142952
v 0.739790 1.795037 -0.196525
v 0.801470 1.716608 -0.378721
v 0.823297 1.429158 -0.483586
v 0.616715 1.771185 -0.021534
v 1.155465 1.380801 0.152814
v 0.156198 1.413273 -0.923582
v 0.585013 1.427548 -0.737552
v 0.411481 1.817791 0.131148
v 0.156198 1.841679 0.218366
v 1.066939 1.355488 0.252033
v 1.431243 1.387754 0.891262
v 1.363505 1.760387 1.212870
v 1.152384 1.594322 0.199177
v 1.195772 1.728693 0.431451
v 1.043657 1.757653 0.469321
v 0.901158 1.097355 -0.094475
v 1.367612 1.174563 0.426377
v 1.050745 1.567334 0.322023
v 0.156198 1.815197 0.688518
v 0.464587 1.718109 0.634279
v 0.156198 1.843354 1.177284
v 0.156198 1.838048 1.767343
v 0.435918 1.765001 1.232005
v 0.591584 1.600755 0.629637
v 0.518867 1.532580 1.284435
v 0.873476 1.337057 0.072015
v 0.767711 1.578330 0.086256
v 0.156198 0.952017 -0.842277
v 0.720509 1.408146 0.650834
v 0.773161 1.195395 0.629231
v 0.876279 0.960031 0.528054
v 0.156198 1.504547 1.578848
v 0.156198 1.223794 1.345777
v 0.558078 1.296906 1.220056
v 0.623644 1.051706 1.125313
v 0.661937 0.809125 0.925136
v 0.156198 1.019247 1.218843
v 0.156198 0.754937 1.083397
v 0.705147 0.951893 -0.573649
v 0.156198 0.599061 -0.496163
v 0.722116 0.688543 -0.306782
v 0.933162 0.783225 -0.009428
v 0.854165 0.765099 0.414690
v 0.643349 0.634045 0.671042
v 0.156198 0.558953 0.869530
v 0.456026 0.413358 0.178837
v 0.531675 0.457785 0.006843
v 0.703564 0.559573 0.066582
v 0.156198 0.434292 -0.160828
v 0.156198 0.368417 0.210479
v 0.691565 0.533591 0.277698
v 0.555976 0.459612 0.319649
v 0.156198 0.395834 0.522792
v 0.683557 0.142443 0.047128
v 0.527137 0.129656 0.058652
v 0.487133 -0.018734 0.196278
v 0.414033 0.087028 -0.540978
v 0.270776 -0.015692 -0.566330
v 0.827982 0.076706 -0.559255
v 0.907815 -0.032588 -0.572105
v 0.748440 -0.010019 0.217811
v 0.660467 0.131590 0.309624
v 0.683419 0.020494 0.586239
v 0.552295 0.118941 0.299774
v 0.523735 -0.009535 0.591264
v 0.156198 2.519919 -1.915293
v 0.501061 2.618339 -1.824018
v 0.426430 2.783609 -1.930384
v 0.156198 2.857268 -2.169426
v 0.307797 2.531527 -1.844396
v 0.352867 2.807277 -2.101759
v 0.415646 2.526364 -1.697819
v 0.486560 2.739022 -1.847981
v 0.417474 2.527847 -1.697687
v 0.305367 2.530833 -1.840012
v 0.156198 2.521170 -1.912781
v 0.391184 2.459275 -1.010352
v 0.156198 2.459275 -0.987654
vn -0.8973 0.2000 -0.3936
vn -0.9260 0.0608 -0.3727
vn -0.9053 -0.3079 -0.2926
vn -0.9558 -0.1450 -0.2558
vn -0.4585 0.4387 -0.7728
vn -0.4779 0.6882 -0.5459
vn 0.0000 0.8261 -0.5636
vn 0.0000 0.5504 -0.8349
vn -0.5070 0.8617 0.0208
vn 0.0000 0.9889 0.1484
vn -0.3845 -0.6971 -0.6052
vn -0.0000 -0.7561 -0.6545
vn 0.0000 -0.8360 -0.5488
vn -0.3256 -0.7779 -0.5374
vn 0.0000 -0.8909 -0.4541
vn -0.3170 -0.8438 -0.4331
vn -0.5477 0.5908 0.5925
vn 0.0000 0.6983 0.7158
vn -0.6103 0.0975 0.7862
vn 0.0000 0.1423 0.9898
vn -0.4833 -0.4231 0.7664
vn 0.0000 -0.4230 0.9061
vn -0.9020 -0.0507 0.4287
vn -0.7517 -0.4634 0.4692
vn -0.8394 0.4230 0.3413
vn -0.9210 0.3267 0.2124
vn -0.9656 0.0627 0.2524
vn -0.7962 0.6045 -0.0240
vn -0.8877 0.4504 -0.0955
vn -0.9882 -0.1531 0.0002
vn -0.9635 -0.2640 0.0443
vn -0.8500 -0.5108 0.1283
vn -0.8023 -0.5681 -0.1831
vn -0.7582 0.4411 -0.4802
vn -0.6856 0.2898 -0.6679
vn -0.6042 -0.6064 -0.5169
vn -0.6218 -0.6641 -0.4150
vn -0.5634 -0.7669 -0.3073
vn -0.5014 0.1951 -0.8430
vn -0.6040 0.0300 -0.7964
vn -0.8379 0.0586 -0.5426
vn -0.7164 0.3009 -0.6295
vn -0.8044 0.4489 -0.3892
vn -0.7962 0.5071 -0.3300
vn -0.7139 -0.6958 -0.0790
vn -0.7130 -0.6727 0.1980
vn -0.6017 -0.6728 0.4305
vn -0.3607 -0.6914 0.6260
vn 0.0000 -0.6949 0.7191
vn 0.0000 0.7689 0.6394
vn -0.3813 0.7201 0.5798
vn -0.3949 0.8424 0.3665
vn 0.0000 0.9367 0.3502
vn -0.5686 0.6778 0.4661
vn -0.3984 0.8299 0.3905
vn -0.7100 0.6786 0.1878
vn -0.6025 0.7981 0.0031
vn -0.8268 0.4283 -0.3647
vn -0.6175 0.7650 -0.1830
vn -0.8790 0.0345 -0.4756
vn -0.9450 -0.1052 -0.3098
vn -0.9026 0.1576 -0.4006
vn -0.6558 -0.3470 -0.6705
vn -0.0000 -0.0204 -0.9998
vn 0.0000 -0.4379 -0.8990
vn 0.0000 0.1610 -0.9870
vn 0.0000 -0.7949 -0.6067
vn -0.6188 -0.6209 -0.4812
vn -0.0000 -0.9347 -0.3554
vn -0.3184 -0.8982 -0.3031
vn -0.6790 -0.7262 -0.1076
vn -0.9220 -0.3663 -0.1253
vn -0.8847 -0.4195 0.2035
vn -0.9645 -0.0600 0.2572
vn -0.9470 0.1650 0.2755
vn -0.9542 0.2423 0.1754
vn 0.6117 -0.4656 0.6395
vn 0.6202 -0.3896 0.6809
vn 0.6647 -0.4292 0.6115
vn 0.7172 -0.4821 0.5032
vn -0.1579 0.1699 0.9727
vn 0.7226 -0.3923 0.5691
vn 0.8000 -0.4447 0.4029
vn -0.0962 0.9953 -0.0103
vn -0.8518 0.4704 -0.2305
vn 0.7801 -0.4031 0.4785
vn 0.8208 -0.4260 0.3805
vn -0.9150 0.3004 -0.2693
vn -0.9046 0.3491 0.2445
vn -0.7793 0.5993 0.1833
vn -0.5092 0.8557 0.0920
vn 0.0000 0.9998 0.0187
vn -0.6968 0.6849 0.2132
vn 0.0000 0.9995 -0.0300
vn -0.0000 0.5857 0.8105
vn -0.6889 -0.1881 0.7000
vn -0.8493 0.0691 0.5234
vn -0.0000 -0.4377 0.8991
vn -0.7478 -0.0981 0.6566
vn -0.0000 -0.4734 0.8809
vn -0.6797 -0.2199 0.6998
vn 0.0000 -0.6645 0.7473
vn -0.6615 -0.4486 0.6010
vn -0.0000 -0.9998 -0.0214
vn -0.1645 -0.9859 -0.0319
vn -0.0000 -0.9544 0.2986
vn -0.3957 -0.8799 0.2629
vn -0.0000 -0.8494 0.5277
vn -0.5654 -0.7133 0.4142
vn -0.6999 -0.6929 0.1730
vn 0.8973 0.2000 -0.3936
vn 0.9558 -0.1450 -0.2558
vn 0.9053 -0.3079 -0.2926
vn 0.9260 0.0608 -0.3727
vn 0.4585 0.4387 -0.7728
vn 0.4779 0.6882 -0.5459
vn 0.5070 0.8617 0.0208
vn 0.3845 -0.6971 -0.6052
vn 0.3256 -0.7779 -0.5374
vn 0.3170 -0.8438 -0.4331
vn 0.5477 0.5908 0.5925
vn 0.6103 0.0975 0.7862
vn 0.4833 -0.4231 0.7664
vn 0.7517 -0.4634 0.4692
vn 0.9020 -0.0507 0.4287
vn 0.8394 0.4230 0.3413
vn 0.9656 0.0627 0.2524
vn 0.9210 0.3267 0.2124
vn 0.8877 0.4504 -0.0955
vn 0.7962 0.6045 -0.0240
vn 0.9882 -0.1531 0.0002
vn 0.9635 -0.2640 0.0443
vn 0.8500 -0.5108 0.1283
vn 0.8023 -0.5681 -0.1831
vn 0.6856 0.2898 -0.6679
vn 0.7582 0.4411 -0.4802
vn 0.6218 -0.6641 -0.4150
vn 0.6042 -0.6064 -0.5169
vn 0.5634 -0.7669 -0.3073
vn 0.5014 0.1951 -0.8430
vn 0.7164 0.3009 -0.6295
vn 0.8379 0.0586 -0.5426
vn 0.6040 0.0300 -0.7964
vn 0.7962 0.5071 -0.3300
vn 0.8044 0.4489 -0.3892
vn 0.7139 -0.6958 -0.0790
vn 0.7130 -0.6727 0.1980
vn 0.6017 -0.6728 0.4305
vn 0.3607 -0.6914 0.6260
vn 0.3949 0.8424 0.3665
vn 0.3813 0.7201 0.5798
vn 0.3984 0.8299 0.3905
vn 0.5686 0.6778 0.4661
vn 0.6025 0.7981 0.0031
vn 0.7100 0.6786 0.1878
vn 0.6175 0.7650 -0.1830
vn 0.8268 0.4283 -0.3647
vn 0.8790 0.0345 -0.4756
vn 0.9026 0.1576 -0.4006
vn 0.9450 -0.1052 -0.3098
vn 0.6558 -0.3470 -0.6705
vn 0.6188 -0.6209 -0.4812
vn 0.3184 -0.8982 -0.3031
vn 0.9220 -0.3663 -0.1253
vn 0.6790 -0.7262 -0.1076
vn 0.9645 -0.0600 0.2572
vn 0.8847 -0.4195 0.2035
vn 0.9542 0.2423 0.1754
vn 0.9470 0.1650 0.2755
vn -0.6117 -0.4656 0.6395
vn -0.7172 -0.4821 0.5032
vn -0.6647 -0.4292 0.6115
vn -0.6202 -0.3896 0.6809
vn -0.7226 -0.3923 0.5691
vn 0.1579 0.1699 0.9727
vn -0.8000 -0.4447 0.4029
vn 0.0962 0.9953 -0.0103
vn 0.8518 0.4704 -0.2306
vn -0.7801 -0.4031 0.4785
vn -0.8208 -0.4260 0.3805
vn 0.9150 0.3004 -0.2693
vn 0.7793 0.5993 0.1833
vn 0.9046 0.3491 0.2445
vn 0.5092 0.8557 0.0920
vn 0.6968 0.6849 0.2132
vn 0.6889 -0.1881 0.7000
vn 0.8493 0.0691 0.5234
vn 0.7478 -0.0981 0.6566
vn 0.6797 -0.2199 0.6998
vn 0.6615 -0.4486 0.6010
vn 0.1645 -0.9859 -0.0319
vn 0.3957 -0.8799 0.2629
vn 0.5654 -0.7133 0.4142
vn 0.6999 -0.6929 0.1730
vn -0.9810 0.1859 -0.0558
vn -0.9810 0.1859 -0.0563
vn -0.9814 0.1869 -0.0443
vn -0.9805 0.1850 -0.0668
vn 0.9810 0.1859 -0.0558
vn 0.9814 0.1869 -0.0443
vn 0.9810 0.1859 -0.0563
vn 0.9805 0.1850 -0.0668
vn -0.6075 0.7785 -0.1581
vn -0.5981 0.7894 -0.1383
vn -0.8744 0.4309 -0.2231
vn -0.5194 0.8400 -0.1567
vn -0.5741 0.8045 -0.1525
vn 0.0000 -0.9970 -0.0771
vn 0.0090 -0.9961 -0.0879
vn -0.1984 -0.9612 -0.1914
vn 0.0000 -0.9757 -0.2193
vn -0.2632 -0.9465 -0.1868
vn -0.3317 -0.9228 -0.1960
vn -0.7756 0.2307 -0.5875
vn -0.6828 -0.4393 -0.5838
vn -0.9675 -0.0047 -0.2530
vn 0.0000 -0.4331 -0.9013
vn 0.0000 0.1744 -0.9847
vn -0.8622 -0.0448 0.5045
vn -0.8789 -0.0743 -0.4711
vn -0.7753 0.5837 -0.2410
vn -0.6969 0.5064 0.5078
vn 0.2960 -0.0688 -0.9527
vn 0.7245 0.5416 -0.4263
vn 0.9933 -0.0563 0.1004
vn 0.9507 0.2820 0.1294
vn 0.6642 0.3739 0.6473
vn 0.3866 0.8584 0.3372
vn 0.2685 -0.0063 0.9633
vn -0.1185 0.9246 0.3622
vn -0.8613 0.4942 0.1183
vn -0.4059 0.7323 -0.5469
vn -0.6906 0.5679 -0.4478
vn 0.3679 0.7513 -0.5479
vn 0.6846 0.6483 -0.3332
vn -0.0894 -0.9945 0.0551
vn -0.0369 -0.9988 0.0327
vn -0.0321 -0.9990 0.0306
vn 0.0093 -0.9999 0.0129
vn -0.4511 -0.8588 -0.2428
vn -0.0000 0.9784 -0.2067
vn -0.5318 -0.8130 -0.2370
vn 0.0000 -0.9530 -0.3030
vn -0.3724 -0.8881 -0.2694
vn -0.3362 -0.8992 -0.2800
vn -0.4380 -0.8640 -0.2485
vn -0.0000 0.9970 0.0775
vn 0.0168 0.9964 0.0825
vn -0.0076 0.9960 0.0892
vn -0.0520 0.9935 0.1011
vn 0.8744 0.4309 -0.2231
vn 0.5981 0.7894 -0.1383
vn 0.6075 0.7785 -0.1581
vn 0.5194 0.8400 -0.1567
vn 0.5741 0.8045 -0.1525
vn 0.1984 -0.9612 -0.1914
vn -0.0090 -0.9961 -0.0879
vn 0.2632 -0.9465 -0.1868
vn 0.3317 -0.9228 -0.1960
vn 0.7756 0.2307 -0.5875
vn 0.9675 -0.0047 -0.2530
vn 0.6828 -0.4393 -0.5838
vn 0.8622 -0.0448 0.5045
vn 0.6969 0.5064 0.5078
vn 0.7753 0.5837 -0.2410
vn 0.8789 -0.0743 -0.4711
vn -0.7245 0.5416 -0.4263
vn -0.2960 -0.0688 -0.9527
vn -0.9507 0.2820 0.1294
vn -0.9933 -0.0563 0.1004
vn -0.6642 0.3739 0.6473
vn -0.3866 0.8584 0.3372
vn -0.2685 -0.0063 0.9633
vn 0.1185 0.9246 0.3622
vn 0.8613 0.4942 0.1183
vn 0.6906 0.5679 -0.4478
vn 0.4059 0.7323 -0.5469
vn -0.3679 0.7513 -0.5479
vn -0.6846 0.6483 -0.3332
vn 0.0894 -0.9945 0.0551
vn 0.0321 -0.9990 0.0306
vn 0.0369 -0.9988 0.0327
vn -0.0093 -0.9999 0.0129
vn 0.4511 -0.8588 -0.2428
vn 0.5318 -0.8130 -0.2370
vn 0.3362 -0.8992 -0.2800
vn 0.3724 -0.8881 -0.2694
vn 0.4380 -0.8640 -0.2485
vn 0.0076 0.9960 0.0892
vn -0.0168 0.9964 0.0825
vn 0.0520 0.9935 0.1011
vn -0.2529 0.9458 -0.2037
vn 0.0000 0.9776 -0.2105
vn 0.2529 0.9458 -0.2037
usemtl body
s 2
f 9//1 1//2 5//3 10//4
s 5
f 3//5 15//6 101//7 96//8
s 8
f 15//6 18//9 102//10 101//7
s 9
f 8//11 108//12 126//13 24//14
s 10
f 24//14 126//13 127//15 30//16
s 11
f 18//9 22//17 109//18 102//10
s 12
f 22//17 23//19 110//20 109//18
s 13
f 110//20 23//19 29//21 134//22
s 14
f 29//21 23//19 20//23 28//24
s 15
f 23//19 22//17 19//25 20//23
s 16
f 20//23 19//25 12//26 13//27
s 17
f 19//25 17//28 11//29 12//26
s 19
f 14//30 21//31 20//23 13//27
s 20
f 20//23 21//31 27//32 28//24
s 21
f 27//32 21//31 5//3 26//33
s 22
f 21//31 14//30 10//4 5//3
s 24
f 9//1 16//34 4//35 1//2
s 25
f 16//34 15//6 3//5 4//35
s 26
f 15//6 16//34 17//28 18//9
s 27
f 17//28 16//34 9//1 11//29
s 29
f 18//9 17//28 19//25 22//17
s 30
f 26//33 5//3 7//36 25//37
s 31
f 25//37 7//36 8//11 24//14
s 32
f 25//37 24//14 30//16 31//38
s 33
f 30//39 41//40 38//41 31//42
s 34
f 38//41 37//43 32//44 31//42
s 35
f 32//45 26//33 25//37 31//38
s 36
f 32//45 33//46 27//32 26//33
s 37
f 33//46 34//47 28//24 27//32
s 38
f 34//47 35//48 29//21 28//24
s 39
f 35//48 139//49 134//22 29//21
s 40
f 139//50 35//51 42//52 150//53
s 41
f 42//52 35//51 34//54 39//55
s 42
f 39//55 34//54 33//56 36//57
s 43
f 36//57 33//56 32//44 37//43
s 44
f 36//57 37//43 46//58 47//59
s 45
f 46//58 37//43 38//41 40//60
s 46
f 40//60 38//41 49//61 50//62
s 47
f 49//61 38//41 41//40 64//63
s 48
f 64//63 41//40 147//64 169//65
s 49
f 41//40 30//39 127//66 147//64
s 50
f 64//63 169//65 181//67 65//68
s 51
f 181//67 190//69 70//70 65//68
s 52
f 70//70 71//71 66//72 65//68
s 53
f 65//68 66//72 49//61 64//63
s 54
f 66//72 67//73 60//74 49//61
s 55
f 60//74 59//75 56//76 49//61
s 56
f 49//77 56//78 43//79 50//80
s 57
f 56//78 57//81 51//82 43//79
s 58
f 43//79 51//82 44//83 50//80
s 59
f 48//84 47//59 45//85
s 60
f 48//86 45//87 44//83 51//82
s 61
f 45//85 47//59 46//58 44//88
s 62
f 44//88 46//58 40//60 50//62
s 63
f 51//82 57//81 39//55 48//86
s 64
f 48//84 39//55 36//57 47//59
s 65
f 57//81 58//89 54//90 39//55
s 66
f 54//90 52//91 42//52 39//55
s 67
f 52//91 160//92 150//53 42//52
s 68
f 52//91 53//93 162//94 160//92
s 69
f 163//95 162//94 53//93
s 70
f 173//96 163//95 53//93 55//97
s 71
f 174//98 173//96 55//97 61//99
s 72
f 178//100 174//98 61//99 62//101
s 73
f 179//102 178//100 62//101 63//103
s 74
f 191//104 69//105 70//70 190//69
s 75
f 194//106 73//107 69//105 191//104
s 76
f 194//106 186//108 68//109 73//107
s 77
f 186//108 179//102 63//103 68//109
s 79
f 68//109 63//103 60//74 67//73
s 80
f 63//103 62//101 59//75 60//74
s 81
f 62//101 61//99 58//89 59//75
s 82
f 58//89 57//81 56//76 59//75
s 83
f 61//99 55//97 54//90 58//89
s 84
f 55//97 53//93 52//91 54//90
s 85
f 68//109 67//73 72//110 73//107
s 86
f 72//110 67//73 66//72 71//71
s 112
f 111//111 112//112 103//113 97//114
s 115
f 99//115 96//8 101//7 117//116
s 118
f 117//116 101//7 102//10 120//117
s 119
f 107//118 128//119 126//13 108//12
s 120
f 128//119 135//120 127//15 126//13
s 121
f 120//117 102//10 109//18 124//121
s 122
f 124//121 109//18 110//20 125//122
s 123
f 110//20 134//22 133//123 125//122
s 124
f 133//123 132//124 122//125 125//122
s 125
f 125//122 122//125 121//126 124//121
s 126
f 122//125 115//127 114//128 121//126
s 127
f 121//126 114//128 113//129 119//130
s 129
f 116//131 115//127 122//125 123//132
s 130
f 122//125 132//124 131//133 123//132
s 131
f 131//133 130//134 103//113 123//132
s 132
f 123//132 103//113 112//112 116//131
s 134
f 111//111 97//114 100//135 118//136
s 135
f 118//136 100//135 99//115 117//116
s 136
f 117//116 120//117 119//130 118//136
s 137
f 119//130 113//129 111//111 118//136
s 139
f 120//117 124//121 121//126 119//130
s 140
f 130//134 129//137 106//138 103//113
s 141
f 129//137 128//119 107//118 106//138
s 142
f 129//137 136//139 135//120 128//119
s 143
f 135//140 136//141 144//142 148//143
s 144
f 144//142 136//141 137//144 143//145
s 145
f 137//146 136//139 129//137 130//134
s 146
f 137//146 130//134 131//133 138//147
s 147
f 138//147 131//133 132//124 140//148
s 148
f 140//148 132//124 133//123 141//149
s 149
f 141//149 133//123 134//22 139//49
s 150
f 139//50 150//53 149//150 141//151
s 151
f 149//150 145//152 140//153 141//151
s 152
f 145//152 142//154 138//155 140//153
s 153
f 142//154 143//145 137//144 138//155
s 154
f 142//154 155//156 154//157 143//145
s 155
f 154//157 146//158 144//142 143//145
s 156
f 146//158 158//159 157//160 144//142
s 157
f 157//160 180//161 148//143 144//142
s 158
f 180//161 169//65 147//64 148//143
s 159
f 148//143 147//64 127//66 135//140
s 160
f 180//161 182//162 181//67 169//65
s 161
f 181//67 182//162 188//163 190//69
s 162
f 188//163 182//162 183//164 189//165
s 163
f 182//162 180//161 157//160 183//164
s 164
f 183//164 157//160 172//166 184//167
s 165
f 172//166 157//160 167//168 171//169
s 166
f 157//170 158//171 151//172 167//173
s 167
f 167//173 151//172 159//174 168//175
s 168
f 151//172 158//171 152//176 159//174
s 169
f 156//177 153//178 155//156
s 170
f 156//179 159//174 152//176 153//180
s 171
f 153//178 152//181 154//157 155//156
s 172
f 152//181 158//159 146//158 154//157
s 173
f 159//174 156//179 145//152 168//175
s 174
f 156//177 155//156 142//154 145//152
s 175
f 168//175 145//152 165//182 170//183
s 176
f 165//182 145//152 149//150 161//184
s 177
f 161//184 149//150 150//53 160//92
s 178
f 161//184 160//92 162//94 164//185
s 179
f 163//95 164//185 162//94
s 180
f 173//186 166//187 164//185 163//95
s 181
f 174//98 175//188 166//187 173//186
s 182
f 178//100 176//189 175//188 174//98
s 183
f 179//102 177//190 176//189 178//100
s 184
f 191//104 190//69 188//163 187//191
s 185
f 194//106 191//104 187//191 193//192
s 186
f 194//106 193//192 185//193 186//108
s 187
f 186//108 185//193 177//190 179//102
s 189
f 185//193 184//167 172//166 177//190
s 190
f 177//190 172//166 171//169 176//189
s 191
f 176//189 171//169 170//183 175//188
s 192
f 170//183 171//169 167//168 168//175
s 193
f 175//188 170//183 165//182 166//187
s 194
f 166//187 165//182 161//184 164//185
s 195
f 185//193 193//192 192//194 184//167
s 196
f 192//194 189//165 183//164 184//167
usemtl eye
s 18
f 11//195 14//196 13//197 12//197
s 28
f 11//195 9//198 10//198 14//196
s 128
f 113//199 114//200 115//200 116//201
s 138
f 113//199 116//201 112//202 111//202
usemtl beak
s 1
f 1//2 4//203 87//204 91//205
s 3
f 3//206 89//207 87//204 4//203
s 6
f 219//208 94//209 88//210 207//211
s 7
f 90//212 88//210 94//209 7//213
s 23
f 2//214 6//215 86//216 91//205
s 78
f 105//217 6//215 2//214 95//218
s 87
f 72//219 71//220 74//221 82//222
s 88
f 74//221 71//220 70//223 75//224
s 89
f 75//224 70//223 69//225 76//226
s 90
f 84//227 85//228 76//226
s 91
f 84//227 76//226 69//225 73//229
s 92
f 84//227 73//229 72//219 82//222
s 93
f 84//227 82//222 83//230 85//228
s 94
f 83//230 82//222 74//221 81//231
s 95
f 81//231 74//221 79//232 80//233
s 96
f 79//232 74//221 75//224 77//234
s 97
f 77//234 75//224 76//226 78//235
s 98
f 80//233 79//232 77//234 78//235
s 99
f 83//236 81//237 76//238 85//236
s 100
f 78//239 76//238 81//237 80//239
s 101
f 91//205 87//204 89//207 2//214
s 102
f 91//205 86//216 5//3 1//2
s 103
f 6//215 88//210 90//212 86//240
s 104
f 207//211 88//210 6//215 105//217
s 105
f 210//241 89//207 3//206 96//241
s 106
f 86//240 90//212 7//213 5//242
s 107
f 108//243 8//244 93//245 217//243
s 108
f 8//244 7//246 92//246 93//245
s 109
f 219//247 217//247 93//248 94//249
s 110
f 93//248 92//250 7//250 94//249
s 111
f 97//114 214//251 209//252 100//253
s 113
f 99//254 100//253 209//252 212//255
s 116
f 219//208 207//211 211//256 218//257
s 117
f 213//258 106//259 218//257 211//256
s 133
f 98//260 214//251 208//261 104//262
s 188
f 105//217 95//218 98//260 104//262
s 197
f 192//263 203//264 195//265 189//266
s 198
f 195//265 196//267 188//268 189//266
s 199
f 196//267 197//269 187//270 188//268
s 200
f 205//271 197//269 206//272
s 201
f 205//271 193//273 187//270 197//269
s 202
f 205//271 203//264 192//263 193//273
s 203
f 205//271 206//272 204//274 203//264
s 204
f 204//274 202//275 195//265 203//264
s 205
f 202//275 201//276 200//277 195//265
s 206
f 200//277 198//278 196//267 195//265
s 207
f 198//278 199//279 197//269 196//267
s 208
f 201//276 199//279 198//278 200//277
s 209
f 204//280 206//280 197//281 202//282
s 210
f 199//283 201//283 202//282 197//281
s 211
f 214//251 98//260 212//255 209//252
s 212
f 214//251 97//114 103//113 208//261
s 213
f 104//262 208//284 213//258 211//256
s 214
f 207//211 105//217 104//262 211//256
s 215
f 210//241 96//241 99//254 212//255
s 216
f 208//284 103//285 106//259 213//258
s 217
f 108//243 217//243 216//286 107//287
s 218
f 107//287 216//286 215//288 106//288
s 219
f 219//247 218//289 216//290 217//247
s 220
f 216//290 218//289 106//291 215//291
usemtl beak2
s 4
f 2//292 89//292 210//293 95//293
s 114
f 98//294 95//293 210//293 212//294
